Coordinates
version=1
nRows=21
nColumns=12
inDegrees=yes

Units are S.I. units (second, meters, Newtons, ...)
Angles are in degrees

endheader
time	SC_y	SC_z	SC_x	AC_y	AC_z	AC_x	GH_y	GH_z	GH_yy	EL_x	PS_y
       0.0              -54.17          8.636          21.66           69.7          8.458          5.869         -104.3         -9.044         -112.5          43.92          15.86
   0.04669              -54.17          8.636          21.66          69.69          8.458          5.869         -104.3         -9.031         -112.5          43.92          15.87
   0.09338              -54.16          8.636          21.66          69.69          8.458           5.87         -104.3         -9.016         -112.4          43.92          15.88
    0.1401              -54.16          8.637          21.66          69.68          8.458           5.87         -104.3         -9.001         -112.4          43.92           15.9
    0.1868              -54.15          8.637          21.66          69.67          8.458           5.87         -104.2         -8.985         -112.3          43.92          15.91
    0.2335              -54.15          8.637          21.66          69.67          8.458          5.871         -104.2         -8.967         -112.3          43.92          15.93
    0.2801              -54.14          8.637          21.66          69.66          8.458          5.871         -104.2         -8.949         -112.2          43.92          15.95
    0.3268              -54.13          8.637          21.65          69.65          8.458          5.871         -104.2         -8.929         -112.2          43.92          15.97
    0.3735              -54.12          8.637          21.65          69.65          8.458          5.872         -104.2         -8.908         -112.1          43.93          15.99
    0.4202              -54.12          8.637          21.65          69.64          8.458          5.872         -104.1         -8.885         -112.0          43.93          16.01
    0.4669              -54.11          8.638          21.65          69.63          8.458          5.873         -104.1         -8.861         -111.9          43.93          16.03
    0.5136               -54.1          8.638          21.65          69.62          8.458          5.873         -104.1         -8.834         -111.9          43.93          16.05
    0.5603              -54.09          8.638          21.65          69.61          8.458          5.874         -104.1         -8.806         -111.8          43.93          16.08
     0.607              -54.08          8.638          21.64           69.6          8.458          5.874         -104.0         -8.775         -111.7          43.94          16.11
    0.6537              -54.07          8.638          21.64          69.58          8.458          5.875         -104.0         -8.742         -111.6          43.94          16.14
    0.7004              -54.05          8.639          21.64          69.57          8.458          5.876         -104.0         -8.706         -111.5          43.94          16.18
     0.747              -54.04          8.639          21.64          69.55          8.458          5.877         -103.9         -8.667         -111.3          43.95          16.21
    0.7937              -54.02          8.639          21.63          69.54          8.459          5.877         -103.9         -8.625         -111.2          43.95          16.25
    0.8404              -54.01           8.64          21.63          69.52          8.459          5.878         -103.9         -8.578         -111.1          43.95           16.3
    0.8871              -53.99           8.64          21.63           69.5          8.459          5.879         -103.8         -8.527         -110.9          43.96          16.34
    0.9338              -53.97           8.64          21.62          69.48          8.459          5.881         -103.8         -8.471         -110.7          43.96           16.4
